:SAMPLES-PER-SECOND 30
:FRAME-RANGE 1-2009
:FULLY-SPECIFIED
:DEGREES
189
root  -1.66638 38.7515 35.4152 -1.13424 -2.30397 -0.897173
RightUpLeg  -8.61248 -1.71131 10.688
RightLeg  19.394 -7.33486 -0.53245
RightFoot  -10.5341 0.0043229 -10.6379
RightToes  2.96424e-010 1.2921e-014 -6.02303e-014
Spine  -5.98243 -3.62691 5.36295
Spine1  8.50849 -3.21247 0.620078
HEad  19.3089 -24.5762 2.31737
LeftShoulder1  1.39299 -1.66804 -21.9187
LeftArm  -1.97066 0.825305 -52.6742
LeftForeArm  36.7872 -0.388115 -12.461
LeftHand  -0.0684792 3.8131 3.74688
RightShoulder  1.19959 0.32121 27.0032
RightArm  -31.5877 5.95446 54.0104
RightForeArm  57.0523 -5.13032 -0.239981
RightHand  -0.274757 -3.6512 -17.7297
LeftUpLeg  -17.6568 -2.30264 4.9613
LeftLeg  62.0812 1.08173 2.82194
LeftFoot  2.07867 0.720077 -6.22486
LeftToes  -1.2485e-010 1.20979e-011 -1.0929e-011
190
root  -1.70353 38.7842 36.6697 -1.51107 -5.28855 -0.299875
RightUpLeg  -6.05238 -2.238 10.2
RightLeg  19.7377 -4.4054 -0.153902
RightFoot  -12.1522 -0.159916 -10.999
RightToes  2.96424e-010 1.2921e-014 -6.02303e-014
Spine  -6.01341 -3.05423 5.75709
Spine1  8.38761 -2.51144 -0.216492
HEad  20.004 -24.1318 1.6054
LeftShoulder1  1.29448 -1.25915 -22.2887
LeftArm  -2.64358 2.42831 -51.3755
LeftForeArm  37.1 0.873555 -12.3833
LeftHand  -0.0695471 3.53026 3.3094
RightShoulder  1.29206 0.661525 26.4955
RightArm  -32.5799 7.94116 55.2278
RightForeArm  51.5676 -4.21776 -0.761758
RightHand  -0.399942 -2.7205 -17.077
LeftUpLeg  -19.089 -5.43331 5.13973
LeftLeg  57.5461 2.26772 4.36564
LeftFoot  -0.804202 0.4666 -5.00692
LeftToes  -1.2485e-010 1.20979e-011 -1.0929e-011
191
root  -1.81319 38.8097 37.8915 -1.46423 -8.86043 0.5683
RightUpLeg  -3.91795 -2.078 9.43857
RightLeg  19.7744 -1.18105 0.184532
RightFoot  -13.5342 -0.305035 -11.1347
RightToes  2.96424e-010 1.2921e-014 -6.02303e-014
Spine  -6.40025 -2.4162 5.40529
Spine1  8.19583 -1.88207 -0.853009
HEad  20.2948 -23.148 1.27108
LeftShoulder1  1.09392 -0.502007 -22.6783
LeftArm  -2.28488 4.15998 -49.6045
LeftForeArm  35.9526 1.97782 -12.6249
LeftHand  -0.0619294 3.89474 3.38768
RightShoulder  1.45333 1.23732 25.9206
RightArm  -33.1288 9.76938 56.1597
RightForeArm  46.1063 -2.90632 -1.00945
RightHand  -0.469916 -2.21503 -16.963
LeftUpLeg  -20.3306 -7.9744 5.14989
LeftLeg  50.8954 4.08695 5.81931
LeftFoot  -3.42688 0.285984 -3.83642
LeftToes  -1.2485e-010 1.20979e-011 -1.0929e-011
192
root  -1.96181 38.863 39.1105 -1.55832 -11.8773 1.37206
RightUpLeg  -1.56581 -1.6572 8.50209
RightLeg  19.4976 1.19299 0.507271
RightFoot  -14.6154 -0.443933 -12.0378
RightToes  2.96424e-010 1.2921e-014 -6.02303e-014
Spine  -6.90157 -2.23367 4.91445
Spine1  8.4134 -1.67166 -1.63566
HEad  20.2134 -22.5282 1.53278
LeftShoulder1  0.804916 0.539262 -23.0613
LeftArm  -3.54283 6.39809 -48.3158
LeftForeArm  35.4366 3.18302 -12.2451
LeftHand  -0.0273516 5.30866 4.39316
RightShoulder  1.61287 1.72589 26.0097
RightArm  -34.0663 11.7138 56.452
RightForeArm  42.9803 -1.83129 -1.5804
RightHand  -0.514768 -1.60115 -15.6439
LeftUpLeg  -20.6942 -10.4612 5.11654
LeftLeg  42.0268 6.44763 6.56786
LeftFoot  -4.13051 0.253283 -3.62594
LeftToes  -1.2485e-010 1.20979e-011 -1.0929e-011
193
root  -2.13982 38.8874 40.3088 -1.49318 -14.6132 2.24372
RightUpLeg  0.572486 -0.801978 7.44759
RightLeg  18.9365 2.50577 0.577197
RightFoot  -15.8604 -0.565172 -11.5692
RightToes  2.96424e-010 1.2921e-014 -6.02303e-014
Spine  -7.55047 -1.91236 3.66098
Spine1  8.64111 -1.43433 -1.81325
HEad  20.0182 -21.5845 1.53813
LeftShoulder1  0.859402 0.353039 -23.0728
LeftArm  -3.79367 9.06571 -47.1513
LeftForeArm  35.2183 4.28513 -12.2369
LeftHand  -0.0405089 4.75919 3.27324
RightShoulder  1.54607 1.4575 26.4212
RightArm  -34.6699 13.2528 56.2018
RightForeArm  38.2186 -0.893429 -1.93736
RightHand  -0.498617 -1.44791 -14.5767
LeftUpLeg  -20.8338 -12.4631 5.07536
LeftLeg  31.7292 8.70483 6.10348
LeftFoot  -1.88486 0.41615 -4.89378
LeftToes  -1.2485e-010 1.20979e-011 -1.0929e-011
194
root  -2.33579 38.8704 41.4584 -1.14381 -17.0639 3.10749
RightUpLeg  2.1359 0.203255 6.29346
RightLeg  18.5826 3.99927 0.924696
RightFoot  -16.8885 -0.678668 -11.6124
RightToes  2.96424e-010 1.2921e-014 -6.02303e-014
Spine  -8.38228 -1.83373 2.5018
Spine1  9.02627 -1.37865 -2.10621
HEad  19.589 -20.7896 1.56408
LeftShoulder1  0.830958 0.470026 -23.2812
LeftArm  -3.36146 11.5381 -45.8867
LeftForeArm  34.4472 4.96929 -12.4683
LeftHand  -0.0444754 4.47902 2.90671
RightShoulder  1.56773 1.57366 26.0819
RightArm  -35.8531 14.6158 56.5776
RightForeArm  33.6145 -0.543955 -2.81141
RightHand  -0.532381 -1.07337 -14.2547
LeftUpLeg  -21.1773 -14.1436 5.03463
LeftLeg  21.1051 10.2822 4.67013
LeftFoot  1.37182 0.719268 -6.5279
LeftToes  -1.2485e-010 1.20979e-011 -1.0929e-011
195
root  -2.55341 38.8694 42.6347 -0.923662 -18.5999 3.4025
RightUpLeg  4.40527 0.563784 5.52644
RightLeg  17.4048 5.30506 1.23664
RightFoot  -17.5533 -0.782607 -12.1886
RightToes  2.96424e-010 1.2921e-014 -6.02303e-014
Spine  -8.87979 -2.10018 1.7397
Spine1  9.38337 -1.6466 -2.41183
HEad  19.3542 -20.2458 1.6787
LeftShoulder1  0.787723 0.629715 -23.421
LeftArm  -3.97862 13.9422 -45.1921
LeftForeArm  35.0169 6.0873 -12.2972
LeftHand  -0.0407278 4.5087 2.43245
RightShoulder  1.55392 1.5478 25.9621
RightArm  -36.9969 15.8119 56.2068
RightForeArm  31.5229 -0.398917 -3.63078
RightHand  -0.525718 -0.812987 -13.3007
LeftUpLeg  -20.4316 -8.59133 2.43656
LeftLeg  10.409 4.68011 3.58346
LeftFoot  3.85226 1.06328 -8.13907
LeftToes  -1.2485e-010 1.20979e-011 -1.0929e-011
196
root  -2.78558 38.8359 43.8015 -0.814055 -19.8822 3.67056
RightUpLeg  6.52069 0.45296 4.68122
RightLeg  16.6388 6.41888 1.56266
RightFoot  -18.0673 -0.827934 -11.9658
RightToes  2.96424e-010 1.2921e-014 -6.02303e-014
Spine  -8.95263 -2.56116 1.03055
Spine1  9.46183 -2.04132 -2.74463
HEad  19.0421 -19.5074 1.96222
LeftShoulder1  0.546714 1.47242 -23.8271
LeftArm  -3.97317 15.548 -44.2224
LeftForeArm  36.0062 7.39512 -12.306
LeftHand  -0.0355519 4.80938 2.32904
RightShoulder  1.63324 1.79197 25.9956
RightArm  -37.7273 16.5969 55.3446
RightForeArm  29.4151 -0.220371 -4.11301
RightHand  -0.503366 -0.754189 -12.5791
LeftUpLeg  -19.9215 -2.07259 -0.301857
LeftLeg  2.01141 -1.6748 2.13105
LeftFoot  2.67747 1.04495 -8.62052
LeftToes  -1.2485e-010 1.20979e-011 -1.0929e-011
